REM DIRINDEX 1\2\4,1\2\5,1\2\6,1\3\7,1\3\8,1\3\9,1\3\10
REM DIRNAME folder01,folder02,folder03,folder04,folder05,folder06,folder07,folder08,folder09,folder10
TITLE ""
FILE "a_70.mp3" MP3
  TRACK 01 AUDIO
    TITLE "0:"
    INDEX 01 00:00:00
  TRACK 02 AUDIO
    TITLE "6:cjc058_1841"
    INDEX 01 00:00:15
  TRACK 03 AUDIO
    TITLE "0:"
    INDEX 01 00:02:73
  TRACK 04 AUDIO
    TITLE "4:cjc058_1842"
    INDEX 01 00:03:47
  TRACK 05 AUDIO
    TITLE "0:"
    INDEX 01 00:05:67
  TRACK 06 AUDIO
    TITLE "5:cjc058_1843"
    INDEX 01 00:06:28
  TRACK 07 AUDIO
    TITLE "0:"
    INDEX 01 00:08:07
  TRACK 08 AUDIO
    TITLE "4:cjc058_1844"
    INDEX 01 00:09:20
  TRACK 09 AUDIO
    TITLE "0:"
    INDEX 01 00:10:61
  TRACK 10 AUDIO
    TITLE "5:cjc058_1845"
    INDEX 01 00:11:23
  TRACK 11 AUDIO
    TITLE "0:"
    INDEX 01 00:13:43
  TRACK 12 AUDIO
    TITLE "4:cjc058_1846"
    INDEX 01 00:14:51
  TRACK 13 AUDIO
    TITLE "0:"
    INDEX 01 00:16:14
  TRACK 14 AUDIO
    TITLE "5:cjc058_1847"
    INDEX 01 00:16:48
  TRACK 15 AUDIO
    TITLE "0:"
    INDEX 01 00:19:22
  TRACK 16 AUDIO
    TITLE "4:cjc058_1848"
    INDEX 01 00:20:34
  TRACK 17 AUDIO
    TITLE "0:"
    INDEX 01 00:21:49
  TRACK 18 AUDIO
    TITLE "5:cjc058_1849"
    INDEX 01 00:22:11
  TRACK 19 AUDIO
    TITLE "0:"
    INDEX 01 00:25:64
  TRACK 20 AUDIO
    TITLE "4:cjc058_1850"
    INDEX 01 00:26:71
  TRACK 21 AUDIO
    TITLE "0:"
    INDEX 01 00:28:02
  TRACK 22 AUDIO
    TITLE "5:cjc058_1851"
    INDEX 01 00:28:39
  TRACK 23 AUDIO
    TITLE "0:"
    INDEX 01 00:30:16
  TRACK 24 AUDIO
    TITLE "4:cjc058_1852"
    INDEX 01 00:31:26
  TRACK 25 AUDIO
    TITLE "0:"
    INDEX 01 00:33:56
  TRACK 26 AUDIO
    TITLE "5:cjc058_1853"
    INDEX 01 00:34:18
  TRACK 27 AUDIO
    TITLE "0:"
    INDEX 01 00:36:44
  TRACK 28 AUDIO
    TITLE "4:cjc058_1854"
    INDEX 01 00:37:57
  TRACK 29 AUDIO
    TITLE "0:"
    INDEX 01 00:39:66
  TRACK 30 AUDIO
    TITLE "5:cjc058_1855"
    INDEX 01 00:40:26
  TRACK 31 AUDIO
    TITLE "0:"
    INDEX 01 00:44:22
  TRACK 32 AUDIO
    TITLE "4:cjc058_1856"
    INDEX 01 00:45:32
  TRACK 33 AUDIO
    TITLE "0:"
    INDEX 01 00:46:62
  TRACK 34 AUDIO
    TITLE "5:cjc058_1857"
    INDEX 01 00:47:23
  TRACK 35 AUDIO
    TITLE "0:"
    INDEX 01 00:50:27
  TRACK 36 AUDIO
    TITLE "4:cjc058_1858"
    INDEX 01 00:51:38
  TRACK 37 AUDIO
    TITLE "0:"
    INDEX 01 00:53:45
  TRACK 38 AUDIO
    TITLE "5:cjc058_1859"
    INDEX 01 00:54:07
  TRACK 39 AUDIO
    TITLE "0:"
    INDEX 01 00:57:74
  TRACK 40 AUDIO
    TITLE "4:cjc058_1860"
    INDEX 01 00:59:08
  TRACK 41 AUDIO
    TITLE "0:"
    INDEX 01 01:01:03
  TRACK 42 AUDIO
    TITLE "5:cjc058_1861"
    INDEX 01 01:01:38
  TRACK 43 AUDIO
    TITLE "0:"
    INDEX 01 01:03:14
  TRACK 44 AUDIO
    TITLE "4:cjc058_1862"
    INDEX 01 01:04:25
  TRACK 45 AUDIO
    TITLE "0:"
    INDEX 01 01:06:06
  TRACK 46 AUDIO
    TITLE "5:cjc058_1863"
    INDEX 01 01:06:38
  TRACK 47 AUDIO
    TITLE "0:"
    INDEX 01 01:08:36
  TRACK 48 AUDIO
    TITLE "4:cjc058_1864"
    INDEX 01 01:09:42
  TRACK 49 AUDIO
    TITLE "0:"
    INDEX 01 01:11:27
  TRACK 50 AUDIO
    TITLE "5:cjc058_1865"
    INDEX 01 01:11:62
  TRACK 51 AUDIO
    TITLE "0:"
    INDEX 01 01:13:65
  TRACK 52 AUDIO
    TITLE "4:cjc058_1866"
    INDEX 01 01:15:01
  TRACK 53 AUDIO
    TITLE "0:"
    INDEX 01 01:16:40
  TRACK 54 AUDIO
    TITLE "5:cjc058_1867"
    INDEX 01 01:17:00
  TRACK 55 AUDIO
    TITLE "0:"
    INDEX 01 01:19:42
  TRACK 56 AUDIO
    TITLE "4:cjc058_1868"
    INDEX 01 01:20:49
  TRACK 57 AUDIO
    TITLE "0:"
    INDEX 01 01:21:72
  TRACK 58 AUDIO
    TITLE "5:cjc058_1869"
    INDEX 01 01:22:33
  TRACK 59 AUDIO
    TITLE "0:"
    INDEX 01 01:24:59
  TRACK 60 AUDIO
    TITLE "4:cjc058_1870"
    INDEX 01 01:25:70
  TRACK 61 AUDIO
    TITLE "0:"
    INDEX 01 01:27:30
  TRACK 62 AUDIO
    TITLE "5:cjc058_1871"
    INDEX 01 01:27:65
  TRACK 63 AUDIO
    TITLE "0:"
    INDEX 01 01:33:09
  TRACK 64 AUDIO
    TITLE "4:cjc058_1872"
    INDEX 01 01:34:18
  TRACK 65 AUDIO
    TITLE "0:"
    INDEX 01 01:35:49
  TRACK 66 AUDIO
    TITLE "5:cjc058_1873"
    INDEX 01 01:36:07
  TRACK 67 AUDIO
    TITLE "0:"
    INDEX 01 01:37:58
  TRACK 68 AUDIO
    TITLE "4:cjc058_1874"
    INDEX 01 01:38:67
  TRACK 69 AUDIO
    TITLE "0:"
    INDEX 01 01:40:17
  TRACK 70 AUDIO
    TITLE "5:cjc058_1875"
    INDEX 01 01:40:50
  TRACK 71 AUDIO
    TITLE "0:"
    INDEX 01 01:42:63
  TRACK 72 AUDIO
    TITLE "4:cjc058_1876"
    INDEX 01 01:44:01
  TRACK 73 AUDIO
    TITLE "0:"
    INDEX 01 01:46:04
  TRACK 74 AUDIO
    TITLE "5:cjc058_1877"
    INDEX 01 01:46:41
  TRACK 75 AUDIO
    TITLE "0:"
    INDEX 01 01:48:26
  TRACK 76 AUDIO
    TITLE "4:cjc058_1878"
    INDEX 01 01:49:33
  TRACK 77 AUDIO
    TITLE "0:"
    INDEX 01 01:51:09
  TRACK 78 AUDIO
    TITLE "5:cjc058_1879"
    INDEX 01 01:51:46
  TRACK 79 AUDIO
    TITLE "0:"
    INDEX 01 01:53:53
  TRACK 80 AUDIO
    TITLE "4:cjc058_1880"
    INDEX 01 01:54:64
  TRACK 81 AUDIO
    TITLE "0:"
    INDEX 01 01:57:37
  TRACK 82 AUDIO
    TITLE "5:cjc058_1881"
    INDEX 01 01:57:74
  TRACK 83 AUDIO
    TITLE "0:"
    INDEX 01 01:59:67
  TRACK 84 AUDIO
    TITLE "4:cjc058_1882"
    INDEX 01 02:01:03
  TRACK 85 AUDIO
    TITLE "0:"
    INDEX 01 02:02:36
  TRACK 86 AUDIO
    TITLE "5:cjc058_1883"
    INDEX 01 02:02:71
  TRACK 87 AUDIO
    TITLE "0:"
    INDEX 01 02:05:36
  TRACK 88 AUDIO
    TITLE "4:cjc058_1884"
    INDEX 01 02:06:46
  TRACK 89 AUDIO
    TITLE "0:"
    INDEX 01 02:08:17
  TRACK 90 AUDIO
    TITLE "5:cjc058_1885"
    INDEX 01 02:08:52
  TRACK 91 AUDIO
    TITLE "0:"
    INDEX 01 02:10:24
  TRACK 92 AUDIO
    TITLE "4:cjc058_1886"
    INDEX 01 02:11:31
  TRACK 93 AUDIO
    TITLE "0:"
    INDEX 01 02:12:44
  TRACK 94 AUDIO
    TITLE "5:cjc058_1887"
    INDEX 01 02:13:05
  TRACK 95 AUDIO
    TITLE "0:"
    INDEX 01 02:15:70
  TRACK 96 AUDIO
    TITLE "4:cjc058_1888"
    INDEX 01 02:17:04
  TRACK 97 AUDIO
    TITLE "0:"
    INDEX 01 02:19:11
  TRACK 98 AUDIO
    TITLE "5:cjc058_1889"
    INDEX 01 02:19:46
  TRACK 99 AUDIO
    TITLE "0:"
    INDEX 01 02:24:26
  TRACK 100 AUDIO
    TITLE "4:cjc058_1890"
    INDEX 01 02:25:33
  TRACK 101 AUDIO
    TITLE "0:"
    INDEX 01 02:27:28
  TRACK 102 AUDIO
    TITLE "5:cjc058_1891"
    INDEX 01 02:27:63
  TRACK 103 AUDIO
    TITLE "0:"
    INDEX 01 02:30:27
  TRACK 104 AUDIO
    TITLE "4:cjc058_1892"
    INDEX 01 02:31:36
  TRACK 105 AUDIO
    TITLE "0:"
    INDEX 01 02:33:56
  TRACK 106 AUDIO
    TITLE "5:cjc058_1893"
    INDEX 01 02:34:15
  TRACK 107 AUDIO
    TITLE "0:"
    INDEX 01 02:36:66
  TRACK 108 AUDIO
    TITLE "4:cjc058_1894"
    INDEX 01 02:38:01
  TRACK 109 AUDIO
    TITLE "0:"
    INDEX 01 02:39:27
  TRACK 110 AUDIO
    TITLE "5:cjc058_1895"
    INDEX 01 02:39:63
  TRACK 111 AUDIO
    TITLE "0:"
    INDEX 01 02:43:41
  TRACK 112 AUDIO
    TITLE "4:cjc058_1896"
    INDEX 01 02:44:48
  TRACK 113 AUDIO
    TITLE "0:"
    INDEX 01 02:46:45
  TRACK 114 AUDIO
    TITLE "5:cjc058_1897"
    INDEX 01 02:47:05
  TRACK 115 AUDIO
    TITLE "0:"
    INDEX 01 02:49:67
  TRACK 116 AUDIO
    TITLE "4:cjc058_1898"
    INDEX 01 02:51:01
  TRACK 117 AUDIO
    TITLE "0:"
    INDEX 01 02:52:34
  TRACK 118 AUDIO
    TITLE "5:cjc058_1899"
    INDEX 01 02:52:69
  TRACK 119 AUDIO
    TITLE "0:"
    INDEX 01 02:54:66
  TRACK 120 AUDIO
    TITLE "4:cjc058_1900"
    INDEX 01 02:56:00
  TRACK 121 AUDIO
    TITLE "0:"
    INDEX 01 02:57:51
  TRACK 122 AUDIO
    TITLE "5:cjc058_1901"
    INDEX 01 02:58:13
  TRACK 123 AUDIO
    TITLE "0:"
    INDEX 01 03:00:39
